<svg xmlns="http://www.w3.org/2000/svg" viewBox="0 0 64 64" role="img" aria-label="PowerPoint Karaoke">
  <defs>
    <linearGradient id="g" x1="10" y1="8" x2="54" y2="58" gradientUnits="userSpaceOnUse">
      <stop stop-color="#7cf7d4"/>
      <stop offset="0.55" stop-color="#9aa7ff"/>
      <stop offset="1" stop-color="#ffb86b"/>
    </linearGradient>
    <filter id="s" x="-20%" y="-20%" width="140%" height="140%">
      <feDropShadow dx="0" dy="5" stdDeviation="5" flood-color="#000" flood-opacity="0.35"/>
    </filter>
  </defs>
  <rect width="64" height="64" rx="16" fill="#090a12"/>
  <path d="M14 17h30a6 6 0 0 1 6 6v21a6 6 0 0 1-6 6H14z" fill="url(#g)" filter="url(#s)"/>
  <path d="M20 24h16c6 0 10 3.3 10 8.8 0 5.6-4 9-10.2 9H28v8h-8zm8 6.3v5.2h7.2c2 0 3.1-1 3.1-2.7 0-1.6-1.1-2.5-3.1-2.5z" fill="#071018" opacity="0.92"/>
  <circle cx="47" cy="18" r="5" fill="#ff4fd8"/>
  <path d="M44 14l6 8m0-8l-6 8" stroke="#fff" stroke-width="1.6" stroke-linecap="round" opacity="0.9"/>
</svg>
